<?xml version="1.0" standalone="no"?>
<!DOCTYPE svg PUBLIC "-//W3C//DTD SVG 20010904//EN"
 "http://www.w3.org/TR/2001/REC-SVG-20010904/DTD/svg10.dtd">
<svg version="1.0" xmlns="http://www.w3.org/2000/svg"
 width="700.000000pt" height="700.000000pt" viewBox="0 0 700.000000 700.000000"
 preserveAspectRatio="xMidYMid meet">
<metadata>
Created by potrace 1.11, written by Peter Selinger 2001-2013
</metadata>
<g transform="translate(0.000000,700.000000) scale(0.100000,-0.100000)"
fill="#000000" stroke="none">
<path d="M2590 6723 c-506 -18 -974 -238 -1390 -653 -393 -392 -730 -978 -944
-1645 -159 -496 -256 -1087 -256 -1566 -1 -772 339 -1367 1002 -1761 115 -68
336 -178 357 -178 7 0 11 26 11 68 0 82 34 184 87 260 33 48 89 102 106 102 4
0 4 -35 0 -78 -4 -54 0 -107 12 -176 17 -93 17 -204 0 -247 -5 -13 12 -21 85
-43 50 -15 94 -24 99 -21 15 9 31 101 31 182 0 41 -7 144 -16 228 -14 138 -14
163 0 263 9 67 27 141 46 189 31 81 124 217 144 210 7 -3 10 -39 8 -118 -3
-88 3 -150 23 -274 35 -205 31 -314 -15 -454 -31 -97 -52 -139 -103 -203 -16
-21 -26 -38 -22 -38 3 0 75 19 160 42 177 48 175 45 182 168 4 52 -2 112 -17
195 -31 169 -30 302 4 418 42 141 142 324 220 399 36 35 92 66 102 56 2 -3 -9
-38 -25 -79 -42 -104 -58 -210 -76 -480 -20 -314 -50 -465 -111 -555 -14 -20
-23 -38 -21 -40 3 -4 166 49 228 74 18 7 29 21 33 44 4 18 11 170 15 338 10
344 14 369 86 516 50 102 151 221 239 280 59 40 80 31 43 -18 -84 -112 -106
-203 -117 -488 -5 -131 -15 -258 -25 -305 -20 -101 -71 -211 -125 -269 -24
-25 -39 -46 -35 -46 14 0 205 98 273 140 l69 43 7 171 c15 376 47 479 210 683
68 84 137 142 200 168 67 28 72 17 22 -52 -78 -110 -115 -211 -175 -468 -45
-195 -69 -267 -111 -342 -17 -29 -28 -53 -25 -53 3 0 41 28 85 63 81 64 104
93 180 232 135 248 366 477 576 570 89 40 95 32 35 -48 -22 -29 -74 -113 -116
-187 -102 -179 -148 -242 -243 -331 -91 -85 -180 -141 -270 -169 -50 -16 -90
-41 -192 -121 -72 -56 -128 -104 -125 -107 11 -12 113 26 255 94 168 82 276
116 422 134 51 6 140 18 197 26 99 15 125 13 105 -5 -66 -61 -310 -238 -366
-265 -125 -62 -335 -90 -463 -62 -38 8 -101 22 -140 30 l-70 15 -55 -36 c-30
-20 -94 -57 -141 -82 l-86 -46 186 -1 c205 -1 247 -8 521 -84 80 -22 176 -45
215 -51 66 -11 188 -7 265 7 31 6 33 5 20 -9 -63 -65 -253 -137 -414 -157
-227 -29 -405 6 -665 130 -195 92 -262 113 -306 94 -16 -7 -73 -28 -125 -46
l-95 -32 50 -8 c301 -48 435 -94 660 -229 l90 -54 260 1 c383 1 679 39 1070
139 616 157 1169 424 1620 782 134 106 364 335 467 463 401 504 575 1103 482
1651 -47 277 -186 608 -370 883 -51 77 -53 80 -34 93 30 21 53 71 45 102 -9
40 -74 128 -110 151 -43 27 -73 25 -105 -5 l-27 -25 -100 112 c-139 156 -374
383 -525 507 l-127 105 24 22 c40 37 26 145 -20 166 -46 21 -114 -6 -142 -57
-9 -16 -63 17 -459 283 -19 13 -18 13 1 5 11 -4 42 -8 68 -8 65 0 81 21 72 90
-3 28 -14 66 -23 85 -17 34 -18 35 -73 34 -80 -2 -143 -37 -147 -83 -3 -28 3
-39 40 -74 l43 -41 -45 27 c-25 15 -83 49 -129 75 -70 39 -86 54 -103 90 -44
92 -145 143 -182 90 l-15 -21 -118 55 c-449 212 -900 354 -1329 418 -143 21
-377 37 -494 33z m2059 -2207 c19 -21 19 -21 -8 -86 -15 -36 -34 -90 -41 -120
-7 -30 -21 -70 -31 -88 -10 -18 -19 -42 -19 -52 0 -10 -4 -21 -9 -24 -8 -6
-40 -91 -59 -161 -14 -53 -41 -133 -57 -170 -7 -16 -29 -77 -48 -135 -20 -58
-45 -131 -57 -164 -36 -100 -23 -108 40 -25 30 40 93 112 141 160 99 101 144
123 197 95 41 -21 46 -45 27 -134 -8 -40 -15 -91 -15 -114 0 -22 -8 -72 -17
-110 -19 -81 -10 -139 33 -195 35 -46 69 -44 128 8 73 64 206 234 206 262 0
38 48 217 65 243 22 34 69 32 106 -5 l29 -29 -20 -47 c-25 -59 -70 -234 -70
-274 0 -41 20 -81 39 -81 46 1 156 105 194 183 33 68 85 272 93 368 4 41 11
80 17 87 17 22 58 13 116 -26 8 -6 16 -43 21 -108 7 -91 5 -111 -26 -249 -19
-82 -34 -153 -34 -157 0 -16 22 -6 102 46 46 29 117 71 158 91 71 36 77 37
118 26 23 -6 56 -11 72 -11 55 0 34 -31 -36 -54 -62 -20 -166 -84 -287 -175
-152 -114 -148 -107 -197 -353 -36 -180 -90 -328 -157 -426 -84 -123 -147
-184 -206 -200 -59 -15 -141 -16 -170 -1 -12 7 -41 27 -65 46 -36 29 -41 38
-36 61 9 36 41 101 126 252 53 96 79 133 114 159 24 18 47 44 50 57 3 13 15
26 25 29 40 13 67 58 29 48 -11 -3 -20 -2 -20 2 0 4 29 38 64 76 75 81 96 121
96 183 l0 45 -32 -19 c-77 -44 -165 -34 -217 25 -17 20 -31 42 -31 50 0 27
-14 16 -44 -33 -52 -82 -85 -119 -142 -157 -52 -35 -60 -37 -117 -33 -125 8
-199 69 -237 198 -25 84 -25 112 0 185 24 69 23 65 6 65 -22 0 -118 -161 -193
-325 -38 -82 -86 -173 -107 -202 l-37 -52 -45 16 c-34 12 -49 24 -63 52 -30
59 -32 83 -16 202 8 62 15 117 15 121 0 16 -21 -3 -46 -43 -14 -22 -40 -49
-58 -60 -18 -10 -39 -30 -46 -44 -8 -14 -25 -28 -39 -32 -14 -3 -39 -16 -54
-29 -49 -41 -158 -63 -224 -45 -78 21 -132 87 -134 163 0 18 -4 41 -8 52 -7
17 -9 16 -38 -8 -57 -48 -86 -52 -149 -21 -60 29 -100 75 -131 150 -10 25 -20
45 -23 45 -15 0 -161 -173 -180 -212 -11 -24 -35 -59 -53 -76 -28 -28 -38 -31
-66 -26 -36 7 -52 31 -30 44 21 14 -36 24 -60 10 -27 -14 -34 -10 -56 39 l-17
40 -43 -57 c-92 -122 -83 -116 -158 -108 -50 6 -76 15 -107 37 -50 36 -70 79
-77 170 -3 38 -9 69 -14 69 -4 0 -40 -36 -80 -81 -104 -114 -146 -132 -196
-83 -24 24 -25 30 -21 102 6 96 76 318 111 350 29 27 37 27 89 1 l40 -21 -29
-31 c-64 -69 -70 -84 -129 -311 -8 -32 -13 -60 -11 -62 8 -8 149 140 202 211
67 89 86 126 125 253 25 81 37 106 55 114 29 13 86 3 115 -20 l21 -17 -26 -60
c-15 -33 -33 -87 -40 -120 -7 -33 -22 -94 -34 -135 -15 -55 -20 -98 -18 -162
1 -48 6 -90 9 -93 23 -23 97 45 170 155 28 41 63 89 78 105 15 17 35 50 44 75
10 25 31 69 48 98 27 48 33 53 57 47 14 -4 40 -18 58 -31 l32 -24 -14 -41 c-8
-23 -15 -58 -15 -78 -1 -20 -9 -61 -20 -91 -10 -30 -17 -56 -16 -58 2 -1 45
42 96 98 108 116 141 140 198 140 67 0 84 -27 81 -125 -3 -66 1 -87 19 -122
26 -50 28 -52 84 -59 39 -5 46 -3 78 28 20 19 57 73 83 119 64 114 140 215
180 239 39 24 106 26 153 4 78 -37 50 -167 -36 -167 -17 0 -32 2 -35 5 -3 2 2
27 10 53 8 27 12 51 10 54 -8 7 -78 -53 -111 -96 -69 -90 -83 -237 -32 -338
29 -60 64 -78 106 -55 14 9 76 72 137 142 60 70 136 148 168 174 31 25 57 53
57 60 0 37 52 186 84 238 20 33 36 73 36 88 0 16 9 46 20 68 11 22 20 48 20
59 0 11 9 25 20 31 10 6 17 16 14 24 -3 8 20 63 50 124 55 109 56 110 97 117
64 11 83 36 76 102 -3 30 -11 61 -18 69 -9 11 -9 21 1 43 11 27 13 28 45 18
19 -6 43 -20 54 -31z m-2781 -201 c78 -24 172 -115 219 -213 l36 -75 -13 -66
c-13 -68 -46 -125 -105 -184 -16 -16 -29 -35 -27 -42 3 -16 -93 -122 -160
-177 -54 -45 -184 -126 -271 -170 -65 -32 -96 -42 -150 -46 -67 -5 -68 -5 -92
-46 -13 -22 -27 -54 -31 -71 -4 -16 -20 -70 -37 -120 -24 -71 -31 -106 -30
-167 1 -89 -9 -97 -57 -50 -49 50 -66 216 -36 359 31 141 194 590 271 744 20
38 33 69 31 69 -9 0 -92 -41 -127 -63 -50 -31 -150 -119 -232 -204 -38 -40
-73 -71 -77 -68 -24 15 -18 118 6 108 15 -5 20 12 6 21 -12 7 -2 68 14 84 8 7
14 19 14 26 0 22 247 246 272 246 5 0 29 14 52 30 72 52 284 102 401 95 39 -2
94 -11 123 -20z"/>
<path d="M5244 2839 c-27 -30 -78 -76 -112 -103 -66 -51 -84 -78 -108 -155
-13 -44 -20 -211 -9 -211 3 0 24 9 45 20 77 39 173 206 215 375 14 55 24 106
23 114 -2 8 -23 -8 -54 -40z"/>
<path d="M1706 4146 c-102 -24 -119 -35 -109 -74 3 -12 0 -28 -6 -35 -6 -7
-19 -40 -30 -73 -48 -142 -72 -208 -79 -218 -12 -15 -64 -167 -60 -172 2 -2
20 5 39 16 18 10 49 26 67 35 18 8 54 28 80 44 26 16 59 31 73 35 19 4 31 17
42 45 9 21 26 47 39 57 71 58 198 236 198 279 0 32 -26 62 -62 69 -72 15 -97
14 -192 -8z"/>
<path d="M5692 6658 c-13 -6 -21 -18 -20 -27 4 -20 51 -43 72 -35 18 7 31 47
21 63 -8 14 -43 13 -73 -1z"/>
<path d="M5440 6541 c-85 -26 -108 -58 -95 -128 9 -49 50 -129 70 -137 51 -19
148 7 159 42 8 24 -17 140 -39 182 -14 28 -44 51 -62 49 -4 0 -19 -4 -33 -8z"/>
<path d="M5835 6477 c-38 -21 -60 -141 -34 -189 23 -43 141 -64 187 -32 46 32
22 127 -47 186 -46 39 -79 50 -106 35z"/>
<path d="M4425 6438 c-33 -18 -36 -32 -14 -50 31 -26 67 -23 81 6 21 48 -16
73 -67 44z"/>
<path d="M6281 6365 c-91 -29 -115 -84 -59 -137 66 -61 158 -83 195 -45 23 23
21 104 -4 155 -15 31 -24 37 -53 39 -19 1 -55 -4 -79 -12z"/>
<path d="M5380 6077 c-40 -20 -38 -53 4 -74 34 -16 37 -16 56 2 22 20 26 55 8
73 -15 15 -36 15 -68 -1z"/>
<path d="M5659 6049 c-38 -41 -56 -100 -41 -135 23 -48 153 -80 210 -50 38 19
52 44 54 91 1 41 -27 76 -84 106 -57 29 -104 25 -139 -12z"/>
<path d="M6095 6060 c-17 -18 -17 -21 -1 -45 9 -14 23 -25 30 -25 13 0 46 56
46 79 0 19 -56 12 -75 -9z"/>
<path d="M6470 6003 c-54 -37 -64 -72 -28 -97 24 -17 85 -21 107 -7 24 15 16
73 -14 99 -31 26 -34 27 -65 5z"/>
<path d="M6224 5833 c-27 -29 -54 -109 -54 -161 0 -73 51 -132 115 -132 33 0
101 35 131 67 34 37 32 88 -7 146 -69 104 -136 133 -185 80z"/>
<path d="M5859 5650 c-24 -20 -24 -20 -5 -35 43 -33 86 -15 86 36 0 26 -50 26
-81 -1z"/>
<path d="M6012 5484 c-39 -17 -66 -156 -38 -198 17 -27 70 -46 129 -46 44 0
87 35 87 71 0 81 -120 197 -178 173z"/>
<path d="M6450 5364 c-56 -20 -82 -44 -82 -79 0 -71 144 -145 213 -110 31 17
32 17 27 79 -3 34 -13 76 -22 94 -14 27 -22 32 -54 32 -20 -1 -57 -8 -82 -16z"/>
<path d="M6293 5075 c-18 -8 -33 -21 -33 -30 0 -25 19 -55 35 -55 17 0 45 50
45 80 0 23 -4 24 -47 5z"/>
<path d="M6632 4995 c-31 -26 -44 -56 -33 -72 20 -32 94 -43 126 -20 34 25 -2
117 -46 117 -10 0 -31 -11 -47 -25z"/>
<path d="M2038 797 c-64 -18 -119 -35 -123 -39 -4 -3 15 -10 42 -14 26 -4 83
-20 127 -36 77 -28 359 -83 394 -76 44 8 -248 199 -302 197 -11 0 -74 -15
-138 -32z"/>
</g>
</svg>
