<?xml version="1.0" encoding="utf-8"?>
<!-- Generator: Adobe Illustrator 21.1.0, SVG Export Plug-In . SVG Version: 6.00 Build 0)  -->
<svg version="1.1" id="Layer_1" xmlns="http://www.w3.org/2000/svg" xmlns:xlink="http://www.w3.org/1999/xlink" x="0px" y="0px"
	 viewBox="0 0 633 553" style="enable-background:new 0 0 633 553;" xml:space="preserve">
<style type="text/css">
	.st0{fill:#67F2E0;}
</style>
<path class="st0" d="M630,512.8c-39.2-9.2-77.5-22.4-114.7-38.3c5.1-28.3,27.8-51.7,28.1-81.1c0.3-24.6-4.5-50.4-21.1-69.4
	c-1.3-1.5-3.1-1-3.9,0.3c-1,0.5-1.8,1.5-1.7,2.8c3.3,30.3-24.3,55.7-28.2,85.5c-2.5,18.6-0.4,37.7,8.6,53.7
	c-17.7-8.1-35-16.7-52.2-25.8c-8.1-49.3,25.9-89.7,35.6-136.5c7.7-37.1,7.6-76.3-12.5-109.7c-1-1.7-2.9-1.6-4-0.7
	c-1.2,0.2-2.2,1-2.2,2.5c-0.9,47.8-37.1,85.9-47,132.3c-6.9,32.3-5.6,71.9,11.1,101.8c-19.3-10.8-38.3-22.1-56.8-33.7
	c-2.1-1.3-4.3-2.7-6.4-4c-6.2-28.2,11.1-55.4,23-79.7c11.3-23.3,18.4-48.1,18.5-74.2c0.1-24.9-4.5-48-12-71.6
	c-4.8-15-11.1-35.3-25.7-43.8c0,0,0,0,0,0c-1.5-3-6.2-1.5-5.6,1.8c10.8,52.9-7.9,99.6-17.9,151.2c-6.3,32.3-12.7,72.9,1.5,104.6
	c-17.2-11.3-34-23.1-50.2-35.7c0.7-0.6,1.2-1.5,1.2-2.8c0-51.9,29.9-98.7,32.8-150.5c2.5-45.4-13.7-89.6-45.7-122.4
	c-0.7-0.8-1.6-0.9-2.3-0.8c-1.8-0.5-4,1.6-3.1,3.6c22.7,50.3,4.3,94.7-8.6,144.7c-10.3,39.9-11.9,81.2,10.7,116.2
	c-9.7-8-19.2-16.4-28.3-25.1c-12.4-11.9-24.6-24-35.4-37.2c1.2-0.5,2.1-1.6,2.4-3.2c8.5-51.5,32-101.7,15.7-154.9
	C225.5,86,208.1,39.7,180.9,27c-1.3-0.6-2.4-0.2-3.1,0.6c-1.1,0.6-1.9,2-1.2,3.4c18.9,42.7,16.3,82.1,12.9,127.6
	c-2.2,28.7-3,59.1,7.1,86c-9.9-13.9-20.9-28.2-29.4-39.7c0-0.4,0-0.8-0.1-1.2c0.1-0.8,0.2-1.6-0.2-2.4c-8-20.3-9-42.7-16.2-63.5
	c-6.6-19-14.1-37.9-24-55.5C109.3,51,87.7,22.3,58.8,0.7c-2.2-1.6-5,0.9-4.5,3.1c-0.3,0.6-0.3,1.3,0,2C72,43,72.5,84.5,88.9,122
	c15.2,34.6,38.3,67.8,72.4,85.8c0.5,0.2,0.9,0.4,1.3,0.4c12.4,16.8,27.2,39,44.1,61c-31.6-11.2-56.1-46.3-83.7-64.4
	C107,194.3,90,184.5,71.9,177.5c-19.2-7.4-39-13.8-56.2-25.3c-1.5-1-3-0.2-3.6,1.1c-1.2,0.6-1.8,2.1-0.7,3.5
	c28.2,34.8,47.2,76.5,88.8,98c17.6,9.1,35.8,15.9,55.1,20.2c18.8,4.1,38.3,0.4,57.1,4.6c0.9,0.2,1.7,0.1,2.4-0.2
	c11.2,13.9,23.2,27.5,36,39.1c5.5,5,11,9.8,16.6,14.6c-38.5-16.6-79.2-26.2-121.7-26.8c-43.8-0.7-103.9,5.3-141.4-21.6
	c-2.5-1.8-6,2-3.7,4.2c0.1,0.1,0.3,0.2,0.4,0.3c0.1,0.3,0.2,0.6,0.4,0.9c30,39,80.9,63.6,128.8,72c24.9,4.4,49.6,5.3,74.6,1.1
	c26.4-4.4,57.3-13.3,84-9.6c1.2,0.2,2.1-0.1,2.8-0.7c15.5,12,31.5,23.4,47.9,34.3c-41.4-7.3-82.3-11.2-124.2-3
	c-24.8,4.8-48.7,12.3-73.3,18c-19.4,4.5-52.2,14.1-71.1,4.3c-2.5-1.3-4.9,1.1-4.4,3.1c-0.3,0.7-0.3,1.6,0.5,2.3
	c33,31.3,87.2,38,130.6,33.3c25.7-2.8,50.9-8.7,74.7-19.1c26.6-11.7,53-26,82.8-26.2c1.1,0,2-0.4,2.7-0.9c2.3,1.4,4.5,2.8,6.8,4.2
	c15.9,9.8,32.1,19.5,48.4,28.8c-34-5.8-68.9-0.5-101.1,13.9c-44.2,19.7-84.8,60.6-136.7,51.3c-2.9-0.5-3.6,3.4-1.5,4.8
	c0,0.7,0.3,1.4,0.9,1.9c34.3,26.3,88.2,20.4,126.5,7.8c21.3-7,40.5-17,58.9-29.7c22.6-15.6,47.9-35.9,77.1-33.3
	c1.4,0.1,2.5-0.3,3.3-1c0.3,0,0.6,0.1,0.8,0c14.6,7.8,29.4,15.3,44.4,22.4c-25.1-1.2-49.5,7.9-71.6,22.2c-25,16.2-51.1,44-82.5,44.3
	c-0.8,0-1.4,0.3-1.8,0.8c-1.4,0.8-2,3.1-0.3,4.2c67.9,40.5,126.3-35.5,184.7-56.6c0.8-0.3,1.4-0.7,1.8-1.2
	c36.1,15.4,73.1,28.2,111.2,37.1C632.6,522.1,635.4,514.1,630,512.8z"/>
</svg>
