<?xml version="1.0" encoding="utf-8"?>
<!-- Generator: Adobe Illustrator 21.1.0, SVG Export Plug-In . SVG Version: 6.00 Build 0)  -->
<svg version="1.1" id="Layer_1" xmlns="http://www.w3.org/2000/svg" xmlns:xlink="http://www.w3.org/1999/xlink" x="0px" y="0px"
	 viewBox="0 0 390 174" style="enable-background:new 0 0 390 174;" xml:space="preserve">
<style type="text/css">
	.st0{fill:#FFFFFF;}
</style>
<path class="st0" d="M91.3,55.4c0.7-1.7,2.3-2.7,4-5c0.7-2.7,1.3-6.6,2.3-10.6C97,38.5,96,37.5,96,36.2c-2-6.6-6.3-11.3-11.6-15.3
	c-1.3-0.7-2.6-2.3-3.6-2.7c-5-1.3-9.6-2.7-14.9-2.3c-5.3,0.3-10.3,1.3-15.2,2.7c-5.3,1.7-11.3,2-15.2,6.6c-0.3,0.3-1.3,0-1.7,0.3
	c-1,0.3-2.3,0.7-3,1.7c-1.7,2.3-4.3,3.6-6.6,5.3c-2.3,1.3-4,3.3-5.6,5.3c-1.7,2-4,3.6-6,6c-0.7,0.7,0.3,3-1.7,3.3c0,0,0,1.7,0,2.3
	c-0.3,1-0.3,2-0.7,2.7c0.7,0.7,1.3,1.3,2.3,2.7c-1.3-0.7-2.3-0.7-4-1.3c2.3,2.7-0.3,3-0.3,4.3c1.7,1-0.3,4.3,2.3,5.3
	c1-1.3,2-2.7,3-3.3c2.3-1.3,3.6-2.7,4.6-4.6c0.7-1.3,1.7-2,2.6-2.7c5.3-3,8.3-9,14.2-10.9c2.3-3,5.6-2.7,9.3-5
	c-3.6,7.3-6.6,13.3-9.3,20.2c-4.6,10.9-8.6,22.2-12.2,33.8c-2.6,8.6-4.3,17.6-3.3,26.9c0.7,4,1.3,8.3,5.3,11.3
	c0.3,0,1.7,0.3,2.6,0.3c1-2.7-0.7-4.6-0.7-7c0.3-2.7,1.3-5.3,1.7-8c0.7-3.6,2.6-6.6,3.6-10.3c0.7-4.6,2.3-8.3,5-11.6
	c2.6,0,5.3,0,7.6-0.3c1.3,0,2.3-0.3,3.3-0.7c7.6-3.3,14.6-7.3,20.9-11.9c2-1.3,5-1.7,5.6-4.6c0-0.3,0.3-0.7,0.7-0.7
	c3.3-0.7,5.3-3.3,6.3-6.3c0.7-0.7,1.7-1.3,2.3-2c1-1,1.7-1.7,2.6-2.3c-0.3-0.7-0.7-1.7-1-2.3C88.3,59.4,90.3,58.1,91.3,55.4z
	 M71.5,58.7c0-0.3,0-1,0-1.7h0.3c0,0.7,0.3,1,0.3,1.3C71.8,58.7,71.8,58.7,71.5,58.7z M84,38.5c-1.3,1.7-2,3.6-3.3,5.3
	c-4,5.3-7.6,10.3-12.9,14.6c-0.7,0.7-0.7,1.7-1,2.7c-0.3,0.7-0.7,1.3-1.3,2l0.3-0.3c-0.3,0.7-0.3,1-0.3,1c-3.3,0-5.6,1.7-7.9,3.3
	c-1.7,1.3-3.6,2.3-5.6,3c-1.3,0.3-2.6,0.7-3.3,2c-0.7,1-2.6,1.3-5.3,2.3c3.3-6,3.3-11.6,6.6-16.2c0-0.3,0-0.3,0-0.7
	c0.7-5.6,4.6-10.6,5.3-16.2c0-0.7,0.3-1.3,1-1.7c1.7-1.7,1.3-3.3,0.3-5.6c0.7-1.3,1.7-2.3,4-2.3c4.3-0.7,8.6-1.3,12.9-2.7
	c1.7-0.3,2.6-0.3,4,0.3c0.7,0.3,1.7,1,2.6,1.3c1.7,0,3.3-0.3,4,1.7C85.4,34.2,85.4,36.5,84,38.5z M381.3,77
	c-9.3,3.6-17.5,9.3-25.8,14.6c-0.3-0.7-0.3-0.7-0.3-1c1.3-6.3,2.6-12.6,4.3-18.9c0.3-2.3,1.7-4.6,0.7-6.6c-0.7-3.3-0.3-6.6-0.7-9.6
	c0-1.3-0.3-2.3-0.3-3.3c-3.6-2.7-7-5.3-10.6-2.7c-1.7,3.3,0,6.3-1,9.3c-0.3,2.3-0.3,4.6-1.3,7.3c-1,5-2.3,9.6-3.6,14.3
	c-2.3,6.3-6.3,11.3-11.3,15.6c-1.7,1.7-3.6,3-6.6,2.3c-2.3-3-2-6.3-1.3-9.6c1.7-6.6,2.6-14.3,6.3-20.2c-2-4.3-2-4.3-6.3-5.3
	c-3.3,0.3-4.6,2.3-5.3,4.6c-1.7,6-3.6,11.9-3.3,18.6c-0.3,0-0.3,0-0.7-0.3c-1.7,2.3-3.6,4.6-5.3,6.6c-4.3,5-7.6,10.3-13.6,13.9
	c-2.3,0.7-4.6,0.7-6.3-2.3c-2.6-4.3-4.3-8.6-2.6-13.6c1-2.3,1.7-4.3,1.3-6.6c0-4.6,1-9.6,2-14.3c0.7-1.7,0.3-3.3,0.3-4.6
	c-0.3-0.7-0.7-1.7-1.3-2.3c-2.6-2.3-6.6-2-9.6,0.3c-5.3,3.6-9.3,8.3-13.6,13.3c-2.6,3.6-5.6,7.6-9.3,11.9c0.3-5.3,2.3-9.9,4.3-14.3
	c1.7-4,1.7-8.3,4.3-11.9c1-1.7,0.7-4.6,2.3-6.3c1.7-2,0.3-4.6,1.7-6.6c1.3-1.3,1.3-3,2.3-5.3c-0.3-1.7,0.3-4.3,1.7-6.6s1-5.3,3-6.3
	c0.3-2,0.3-3,0.7-3.6c1.7-1.7,2.3-3.3,2.6-5.3c1-4.3,1.7-8.6,4-12.6c0.7-1.7,1.7-3.3,2.3-4.6C283,2,280.3,1,277,0
	c-3.6,6-5.3,12.3-8.3,18.2c-3,6-5.6,12.3-8.9,18.2c0.3,0.3,0.7,1,0.7,1.7c-1,0.7-1.7,1.3-2.6,1.7c-0.3,0.7-0.3,3-1.3,4.3
	c-2,2.7-2.3,6.3-2.3,9.3c-1.7,2.7-2.6,5.3-4.6,7.3c-1.3,1.3-0.7,2.7-1.3,4c-0.3,1.3-0.7,2.7-1,4.3c-0.3,1.7-1,3.3-1.7,5.3
	c-0.3,1-0.3,2.3-0.7,3.6c-1.3,0.7-3,1.3-4,2.3c-3.3,2.3-6.3,5.6-9.6,9c-3.3,3.6-6.3,7.6-9.3,11.3c-1,1-2.3,2-3,3
	c-3.6,2.7-7.3,1.7-9.3-2c-3-5.3-4-11.3-2.6-17.2c1.3-6,4.3-11.3,9.3-15.3c1.3-1.3,2.6-1.7,4.6-3c-1,3.3-1.7,6.3-2.3,9
	c4.3,1.3,7.3-0.3,8.9-3.6c1.7-3.6,0.7-7.6-2.6-9.3c-5.3-3-11.6-1.7-15.6,3.3c-4.3,5-7.3,10.6-10.9,16.6c-1,1.3-1.7,3-2,4.6
	c-2,2-3.6,4.3-6,5.6c-1,0-1.7,0-2.6,0c-2.3,0-4.6-0.7-6-2.7c-1.3-2.3-2.3-4.6-3.3-7c1.7-3.3,0.7-6.6,1.3-9.6c-1-1.3-1.7-2.7-2.6-4
	c-5-2-8.6-0.7-11.9,3s-7.3,7.3-10.6,10.9c-1.7,1.7-3,3.3-4.3,4.6c0-0.7,0-1.3,0.3-1.7c2-3.6,3-7.6,2.6-11.6c0-1.7,0.7-3.3,1.3-4.6
	c0.3-1.3,0.7-2.3,1.3-2.7c-3-3.6-5.3-4.6-9.3-5.3c-1.3,2.7-3.3,5.3-4.3,7.6c-1.3,2.7-2.3,5.6-3.3,8.3l0,0c-1.3,0.7-2.6,2-3.6,3.3
	c-2.3,3.3-4.6,7-6.6,10.3c-2.6,3.6-5.6,7.3-10.3,8.3c-1.3-2-2-3.6-0.7-5.6c0.7-1.3,0-3-0.3-4.6c0-0.7-0.3-1.3-0.3-2.3
	c0.7-3.6,1.7-7,2.6-10.6c0.3-1.7,1.3-3,1.3-4.6c0-5.6,3-10.6,5.3-16.2c-1.3-1-2.6-2.7-4.3-3.3c-2.6-0.3-6-0.7-7.9,1
	c-2.6,7.6-4,15.3-7.9,21.9c-5.3,8.6-12.2,15.6-20.2,22.5c0.7-3.6,1.3-6.6,2-9.3c1-3.3,2.6-6.3,2.6-9.3c0.7-5,3.6-8.6,7-11.6
	c0.3-0.3,0.7-0.7,1.7-2c-2.3-1-4-1.7-5.6-2.7c-2-0.3-3.6,0-5,2.3c-0.7,0.7-1.3,2-1.7,3.3c-1.7,4.6-3.3,9.6-4.6,14.6
	c-1,4-2,7.6-1.7,11.6c0.3,5.6,5.6,8.3,9.9,5c1.7-0.7,2.6-1.7,4-3.3c2.3-3.3,5.3-6.6,8.3-9.6c0.3-0.3,1-0.3,1.7-1
	c1,2.7,0.3,5.3,0.3,7.6c0.7,6,2.6,10.6,9.3,13.3c2.6,0.7,5,0.3,7.3,1.3c2.3,0.3,3.6-0.3,4.6-2c1.3-1.7,2.3-3.3,3.6-4.6
	c2-2,3.3-4.6,4.6-7c0.3,2.3,1.3,4.6,2.6,6.6c0.3,0.3,0.7,0.7,1.3,1c1.3-0.7,2.3-1.3,3.6-2c1.3,0.7,2.3,1,4,1.3c-1.3,0.7-2.3,0.7-3,1
	c1.3,3.3,4.6,2.7,6.6,3.3c1.3-1.3,3.3-2.7,4.3-4.3c1.3-1.7,1.7-3.6,2.6-5.6c0.3-0.7,0.3-1,0.7-1.3c4.3-4.6,8.3-9,12.6-13.9
	c0.7,1.7,1,2.7,1.7,4.3c2.3,5.6,5.6,9.9,11.3,12.3c3,1.3,5.6,1.3,8.3-0.7c0.7-1,1.7-1.7,2.6-2.3c0.7-0.3,1.7-0.7,2.3-1
	c0,2.7,0,5,0.7,7.6c1.3,7.6,10.6,12.3,18.2,10.3c2.6-1,6.6-1.7,9.3-5c0.3-0.3,1-0.3,1.3-0.3c1.7,0.3,2.6-0.7,3.6-1.7
	c1.3-1.7,2.3-4,3.6-4.3c3.3-1.3,5-4,6.3-7c0.7-0.7,1.7-1.3,2.3-2.3l0,0c-0.3,1-0.3,2-0.7,3c-1,3.6-0.7,8.3-1.7,12.3
	c-1,3.6,0,7.6,2,11.3c1.3,3.3,4.6,2.7,6.6,4.3c0.3,0,0.7,0,1.3,0c2.6-4.3,6.3-7.6,7.6-12.6c0.7-3,3-5.6,4-8.6
	c2.6-8.3,7.9-15.6,12.6-22.9c0.3-0.3,1.3-0.3,2.3-0.7c-0.7,2.3-1.3,3.6-1.7,5.3c-0.7,2.7-2.3,5.6-1.7,8.6c1,3.3,1.7,6.6,3,9.6
	c2.6,6.6,7.6,10.3,14.6,11.3c2.3,0.3,5,0.7,7.3,0c2.3-1.3,5-3.3,7.3-4.6c4.6-4,7.3-9.6,10.6-14.6c0.3,1.7,1,3,1.7,4.6
	c2.3,3.6,5,5,8.9,5.3c4.3,0.3,8.6-0.7,11.6-4.3c0.3,8.6-0.7,10.9-6,16.6c-1.3,1.7-3,3-4.3,4.6c-1,0.7-1.7,1.7-3,3.3
	c2-0.3,3-0.3,4.3-0.3c-0.7,2-1.7,3.3-3.6,3.6c-1.7,0.3-2,1-2.3,3c-0.7,2-3,3.6-5.3,5.3c-1.7,1-2.3,2-3.3,3.6c-2.3,4-4.6,8-6.6,12.3
	c-3.3,5.3-6.3,10.6-7.6,16.9c1.7,1,3.3,2.3,4.6,3.6c3.3,3.3,6.3,4.3,11.3,3.3c2.3,1.7,4-0.7,6-1c3.6-0.3,6-2.7,7.9-5.3
	c0.7-1,1.7-1.7,2.3-2.7c2.6-3.6,5.3-7.6,7.9-11.6c1.3-1.7,1.7-3.6,2.6-5.6c1.3-4.6,3-9.3,4.3-13.6c0.3-1,0.7-1.7,0.7-3
	c1-4.6,1.7-9.6,2.6-14.6c0.3-2,1-3.6,1.3-5.6c0.3-2.7,1.7-4.6,3.6-6c6.3-5.3,12.6-10.3,19.2-14.6c4.6-2.7,9.3-5.6,15.2-6.6
	c0.3-0.7,0.7-1.3,1-2.7C387.6,78.9,384.3,77.9,381.3,77z M256.8,47.4C256.8,47.1,257.1,47.4,256.8,47.4c0.3,0.3,0.3,0.3,0.3,0.3
	c-0.3-0.3-0.7-0.3-0.7-0.3C256.5,47.4,256.5,47.4,256.8,47.4z M148.9,88.9l-0.3-0.3c0,0,0.3,0,0.7,0
	C149.2,88.6,149.2,88.9,148.9,88.9z M324.7,152.9c-1.7,2.7-3.3,5-5,7.3c-3,4.3-3.3,4.3-9.3,6.3c0-5-1-9.6,0.3-14.3
	c1.3-4,1.7-8.6,5.6-11.3c3-2,4.6-5.3,8.3-6.6c1.3-0.3,2-1.7,3-3c1.7-1.7,3-3.3,5.6-6.3C331.3,136,329.3,144.9,324.7,152.9z"/>
</svg>
